<svg width="26" height="24" viewBox="0 0 26 24" fill="none" xmlns="http://www.w3.org/2000/svg">
<path fill-rule="evenodd" clip-rule="evenodd" d="M7.84231 0.0714527C9.15566 0.0129914 9.57441 0 12.9199 0C16.2654 0 16.6842 0.014074 17.9964 0.0714527C19.3087 0.128831 20.2044 0.331281 20.9881 0.62467C21.8088 0.924555 22.5534 1.39333 23.1692 1.99959C23.7962 2.59395 24.2799 3.31281 24.5889 4.10745C24.8935 4.86528 25.1017 5.73137 25.1622 6.99804C25.2227 8.27011 25.2361 8.67501 25.2361 11.9088C25.2361 15.1436 25.2215 15.5485 25.1622 16.8185C25.1029 18.0851 24.8935 18.9512 24.5889 19.709C24.2799 20.5038 23.7954 21.2238 23.1692 21.8191C22.5534 22.4253 21.8088 22.893 20.9881 23.1918C20.2044 23.4863 19.3087 23.6877 17.9987 23.7461C16.6842 23.8046 16.2654 23.8176 12.9199 23.8176C9.57441 23.8176 9.15566 23.8035 7.84231 23.7461C6.53231 23.6887 5.63659 23.4863 4.85284 23.1918C4.03092 22.893 3.28624 22.4245 2.67064 21.8191C2.04406 21.2243 1.55917 20.5046 1.2498 19.7101C0.946373 18.9523 0.738118 18.0862 0.677657 16.8195C0.617196 15.5475 0.60376 15.1426 0.60376 11.9088C0.60376 8.67393 0.618315 8.26903 0.677657 7.0002C0.736998 5.73137 0.946373 4.86528 1.2498 4.10745C1.55963 3.3129 2.04488 2.59321 2.67176 1.99851C3.28649 1.39279 4.03042 0.923952 4.85172 0.62467C5.63547 0.331281 6.5312 0.129914 7.84119 0.0714527H7.84231ZM17.8968 2.21503C16.598 2.15766 16.2083 2.14575 12.9199 2.14575C9.63151 2.14575 9.24187 2.15766 7.94308 2.21503C6.74169 2.26808 6.09005 2.46187 5.65563 2.62535C5.08125 2.84187 4.67033 3.09845 4.23927 3.51526C3.83065 3.89964 3.51618 4.36758 3.31891 4.88477C3.14985 5.30482 2.94943 5.93491 2.89457 7.09655C2.83523 8.35239 2.82291 8.72914 2.82291 11.9088C2.82291 15.0884 2.83523 15.4652 2.89457 16.721C2.94943 17.8827 3.14985 18.5128 3.31891 18.9328C3.51597 19.4492 3.8306 19.918 4.23927 20.3023C4.63674 20.6975 5.12155 21.0017 5.65563 21.1922C6.09005 21.3557 6.74169 21.5495 7.94308 21.6025C9.24187 21.6599 9.63039 21.6718 12.9199 21.6718C16.2095 21.6718 16.598 21.6599 17.8968 21.6025C19.0982 21.5495 19.7498 21.3557 20.1842 21.1922C20.7586 20.9757 21.1695 20.7191 21.6006 20.3023C22.0093 19.918 22.3239 19.4492 22.5209 18.9328C22.69 18.5128 22.8904 17.8827 22.9453 16.721C23.0046 15.4652 23.0169 15.0884 23.0169 11.9088C23.0169 8.72914 23.0046 8.35239 22.9453 7.09655C22.8904 5.93491 22.69 5.30482 22.5209 4.88477C22.297 4.32939 22.0317 3.93207 21.6006 3.51526C21.203 3.12018 20.7191 2.81612 20.1842 2.62535C19.7498 2.46187 19.0982 2.26808 17.8968 2.21503ZM11.3468 15.5799C12.2254 15.9336 13.2036 15.9813 14.1145 15.715C15.0254 15.4487 15.8124 14.8848 16.3411 14.1198C16.8699 13.3547 17.1075 12.4359 17.0134 11.5202C16.9194 10.6046 16.4995 9.74894 15.8254 9.0994C15.3957 8.68419 14.8762 8.36626 14.3042 8.1685C13.7322 7.97075 13.1219 7.89808 12.5174 7.95574C11.9129 8.01339 11.3291 8.19993 10.808 8.50193C10.287 8.80393 9.84172 9.21388 9.50421 9.70225C9.1667 10.1906 8.94538 10.7453 8.85617 11.3263C8.76696 11.9073 8.81209 12.5002 8.98831 13.0623C9.16453 13.6245 9.46746 14.1418 9.87528 14.5771C10.2831 15.0125 10.7857 15.355 11.3468 15.5799ZM8.44356 7.58048C9.0314 7.01208 9.72928 6.5612 10.4973 6.25359C11.2654 5.94597 12.0886 5.78764 12.9199 5.78764C13.7513 5.78764 14.5745 5.94597 15.3425 6.25359C16.1106 6.5612 16.8084 7.01208 17.3963 7.58048C17.9841 8.14888 18.4504 8.82368 18.7686 9.56633C19.0867 10.309 19.2505 11.1049 19.2505 11.9088C19.2505 12.7126 19.0867 13.5086 18.7686 14.2512C18.4504 14.9939 17.9841 15.6687 17.3963 16.2371C16.2091 17.385 14.5989 18.0299 12.9199 18.0299C11.241 18.0299 9.63077 17.385 8.44356 16.2371C7.25635 15.0892 6.58939 13.5322 6.58939 11.9088C6.58939 10.2854 7.25635 8.72842 8.44356 7.58048ZM20.6545 6.69923C20.8002 6.56636 20.9168 6.40658 20.9974 6.22935C21.0781 6.05212 21.1212 5.86104 21.1241 5.66742C21.127 5.47381 21.0897 5.2816 21.0144 5.10217C20.9391 4.92274 20.8274 4.75974 20.6858 4.62282C20.5442 4.4859 20.3756 4.37784 20.19 4.30505C20.0045 4.23225 19.8057 4.1962 19.6054 4.19902C19.4052 4.20184 19.2076 4.24348 19.0243 4.32148C18.841 4.39947 18.6758 4.51223 18.5383 4.65309C18.2711 4.92702 18.1248 5.29088 18.1305 5.66742C18.1361 6.04397 18.2934 6.40355 18.5687 6.66983C18.8441 6.93612 19.216 7.08814 19.6054 7.09363C19.9949 7.09912 20.3712 6.95764 20.6545 6.69923Z" fill="#130F40"/>
</svg>
