<?xml version="1.0" encoding="UTF-8"?><svg xmlns="http://www.w3.org/2000/svg" xmlns:xlink="http://www.w3.org/1999/xlink" contentScriptType="text/ecmascript" width="90pt" zoomAndPan="magnify" contentStyleType="text/css" viewBox="0 0 90 119.999999" height="119.999999pt" preserveAspectRatio="xMidYMid meet" version="1.2"><defs/><g xml:id="surface1" id="surface1"><rect x="0" width="90" y="0" height="119.999999" style="fill:rgb(100%,100%,100%);fill-opacity:1;stroke:none;"/><rect x="0" width="90" y="0" height="119.999999" style="fill:rgb(100%,100%,100%);fill-opacity:1;stroke:none;"/><rect x="0" width="90" y="0" height="119.999999" style="fill:rgb(100%,79.219055%,32.159424%);fill-opacity:1;stroke:none;"/><path style=" stroke:none;fill-rule:nonzero;fill:rgb(65.098572%,5.488586%,0%);fill-opacity:1;" d="M 46.398438 60.074219 C 47.773438 60.074219 48.894531 58.964844 48.894531 57.605469 C 48.894531 56.25 47.773438 55.140625 46.398438 55.140625 C 45.027344 55.140625 43.90625 56.25 43.90625 57.605469 C 43.863281 58.964844 44.984375 60.074219 46.398438 60.074219 Z M 46.398438 60.074219 "/><g clip-rule="nonzero"><path style=" stroke:none;fill-rule:nonzero;fill:rgb(65.098572%,5.488586%,0%);fill-opacity:1;" d="M 69.890625 40.742188 L 28.230469 40.742188 C 27.230469 40.742188 26.398438 41.566406 26.398438 42.554688 L 26.398438 48.558594 L 20.328125 48.558594 C 19.332031 48.558594 18.5 49.382812 18.5 50.367188 L 18.5 77.183594 C 18.5 78.171875 19.332031 78.992188 20.328125 78.992188 L 61.992188 78.992188 C 62.988281 78.992188 63.820312 78.171875 63.820312 77.183594 L 63.820312 71.179688 L 69.890625 71.179688 C 70.890625 71.179688 71.722656 70.355469 71.722656 69.371094 L 71.722656 42.554688 C 71.722656 41.566406 70.890625 40.742188 69.890625 40.742188 Z M 60.496094 67.355469 L 53.71875 60.484375 L 53.59375 60.484375 C 53.511719 60.445312 53.386719 60.484375 53.261719 60.527344 C 53.21875 60.527344 53.175781 60.609375 53.136719 60.652344 L 46.773438 66.941406 L 37.085938 57.359375 C 36.917969 57.195312 36.671875 57.195312 36.503906 57.359375 L 30.140625 63.652344 L 27.105469 60.652344 C 26.941406 60.484375 26.691406 60.484375 26.523438 60.652344 L 21.824219 65.257812 L 21.824219 51.847656 L 60.496094 51.847656 Z M 68.394531 67.890625 L 63.820312 67.890625 L 63.820312 50.367188 C 63.820312 49.382812 62.988281 48.558594 61.992188 48.558594 L 29.726562 48.558594 L 29.726562 44.035156 L 68.394531 44.035156 Z M 68.394531 67.890625 "/></g></g></svg>